<?xml version="1.0" encoding="utf-8"?>
<!-- Generator: Adobe Illustrator 25.4.1, SVG Export Plug-In . SVG Version: 6.00 Build 0)  -->
<svg version="1.1" id="Слой_1" xmlns="http://www.w3.org/2000/svg" xmlns:xlink="http://www.w3.org/1999/xlink" x="0px" y="0px"
	 viewBox="0 0 336.35 46.17" style="enable-background:new 0 0 336.35 46.17;" xml:space="preserve">
<style type="text/css">
	.st0{fill:#0096B8;}
	.st1{fill:#13110C;}
</style>
<g>
	<g>
		<path d="M245.89,0.81v44.61l-10.05,0l0-44.61L245.89,0.81z"/>
		<path d="M275.88,46.17c-10.98,0-17.34-6.24-17.34-17.16V0.81l10.17,0l0,28.2c0,5.05,2.56,7.67,7.17,7.67c4.62,0,7.3-2.62,7.3-7.67
			V0.81l10.11,0v28.2C293.29,39.93,286.86,46.17,275.88,46.17z"/>
		<path d="M117.05,46.17c-10.98,0-17.34-6.24-17.34-17.16l0-28.2l10.17,0l0,28.2c0,5.05,2.56,7.67,7.17,7.67s7.3-2.62,7.3-7.67
			l0-28.2l10.11,0l0,28.2C134.46,39.93,128.03,46.17,117.05,46.17z"/>
		<path d="M320.51,17.97c-5.3-1.25-7.92-2-7.92-4.74c0-2.25,1.75-3.74,6.18-3.74c3.49,0,7.11,1.06,10.36,3.12l0.93,0.64l5.23-7.84
			l-0.92-0.59c-5.18-3.43-9.61-4.8-15.1-4.8c-9.48,0-16.91,4.24-16.91,12.91c0,10.11,9.36,13.23,15.66,14.54
			c4.31,0.87,8.05,1.87,8.05,5.05c0,2.75-2.87,4.12-6.93,4.12c-4.06-0.06-7.86-1.68-11.6-4.3l-0.92-0.64l-0.58,0.83l0,0l-2.12,3.03
			l-2.72,3.88l0.85,0.64c5.3,4.24,10.05,6.11,16.41,6.11c10.92,0,17.91-5.24,17.91-13.97C336.35,22.96,329.18,20.09,320.51,17.97z"
			/>
		<path d="M214.13,45.42L205,30.51h-3.99v14.91l-10.05,0l0-44.61l16.28,0c10.61,0,16.6,5.8,16.6,15.04c0,6.49-3.24,11.04-8.98,13.16
			l10.85,16.41L214.13,45.42z M201.01,10.04v11.73l5.93,0c4.62,0,6.61-1.81,6.61-5.86c0-3.99-2-5.86-6.61-5.86L201.01,10.04z"/>
		<path d="M140.87,45.42l15.2-44.61l11.26,0l15.2,44.61l-10.62,0l-2.59-8.55l-15.16,0l-2.66,8.55L140.87,45.42z M156.71,28.2
			l10.05,0c-1.75-5.49-3.68-12.29-4.93-16.47l-0.13-0.42l-0.12,0.42C160.32,15.91,158.39,22.71,156.71,28.2z"/>
		<path d="M0,45.42L15.2,0.81l11.26,0l15.2,44.61l-10.62,0l-2.59-8.55l-15.16,0l-2.66,8.55L0,45.42z M15.83,28.2l10.05,0
			c-1.75-5.49-3.68-12.29-4.93-16.47l-0.13-0.42l-0.12,0.42C19.45,15.91,17.52,22.71,15.83,28.2z"/>
	</g>
	<g>
		<rect x="80.82" y="36.47" class="st0" width="9.7" height="9.7"/>
		<rect x="71.12" y="26.78" class="st1" width="9.7" height="9.7"/>
		<path class="st1" d="M67.43,0C54.68,0,44.35,10.34,44.35,23.08c0,12.75,10.34,23.08,23.08,23.08h3.69v-9.7h-3.69
			c-7.38,0-13.39-6.01-13.39-13.39c0-7.38,6.01-13.39,13.39-13.39c7.38,0,13.39,6.01,13.39,13.39v3.69l9.7,0v-3.69
			C90.52,10.34,80.18,0,67.43,0z"/>
	</g>
</g>
</svg>
