<?xml version="1.0" encoding="utf-8"?>
<!-- Generator: Adobe Illustrator 25.4.1, SVG Export Plug-In . SVG Version: 6.00 Build 0)  -->
<svg version="1.1" id="Слой_1" xmlns="http://www.w3.org/2000/svg" xmlns:xlink="http://www.w3.org/1999/xlink" x="0px" y="0px"
	 viewBox="0 0 161.44 94.2" style="enable-background:new 0 0 161.44 94.2;" xml:space="preserve">
<style type="text/css">
	.st0{fill:#414245;}
	.st1{fill:#5D5BA5;}
	.st2{fill:none;stroke:#5D5BA5;stroke-width:0.961;stroke-miterlimit:10;}
	.st3{fill:#46BDD6;}
	.st4{fill:#0E9241;}
</style>
<g>
	<path class="st0" d="M37.4,45.33c3.11-2.92,4.66-6.81,4.66-11.66s-1.53-8.76-4.6-11.72c-3.07-2.96-7.24-4.44-12.52-4.44h-9.45V49.7
		h9.33C30.1,49.7,34.29,48.24,37.4,45.33 M42.06,17.75c2.13,1.97,3.71,4.28,4.75,6.92c1.04,2.64,1.56,5.64,1.56,8.99
		c0,6.31-2.01,11.5-6.02,15.56c-2.05,2.05-4.47,3.57-7.26,4.56c-2.8,0.99-5.94,1.48-9.45,1.48H9.41V11.95h15.82
		c3.5,0,6.65,0.47,9.45,1.42C37.48,14.32,39.94,15.78,42.06,17.75"/>
	<path class="st0" d="M150.2,45.15c3.23-3.24,4.84-7.08,4.84-11.54c0-4.46-1.61-8.31-4.84-11.54c-3.19-3.2-7.07-4.79-11.63-4.79
		c-4.6,0-8.5,1.6-11.69,4.79c-3.19,3.19-4.78,7.04-4.78,11.54c0,4.54,1.57,8.38,4.72,11.54c3.19,3.19,7.1,4.79,11.75,4.79
		C143.14,49.94,147.02,48.34,150.2,45.15 M154.75,17.75c4.41,4.3,6.61,9.59,6.61,15.86c0,6.23-2.2,11.5-6.61,15.8
		c-4.37,4.26-9.76,6.39-16.18,6.39c-6.49,0-11.91-2.11-16.24-6.33c-4.37-4.26-6.55-9.55-6.55-15.86c0-6.31,2.16-11.58,6.49-15.8
		c4.37-4.26,9.8-6.39,16.29-6.39C144.95,11.42,150.34,13.53,154.75,17.75"/>
	<path class="st0" d="M102.31,29.05c0.67-0.55,1.19-1.22,1.56-2.01c0.37-0.79,0.56-1.76,0.56-2.9c0-1.07-0.18-1.99-0.53-2.78
		c-0.35-0.79-0.87-1.46-1.53-2.01c-0.75-0.59-1.62-1.05-2.63-1.36c-1-0.32-2.19-0.47-3.57-0.47h-6.61v13.31h6.32
		C98.75,30.83,100.9,30.24,102.31,29.05 M106.74,15.03c1.34,1.06,2.33,2.38,2.98,3.93c0.65,1.56,0.97,3.3,0.97,5.24
		c0,1.89-0.33,3.61-1,5.15c-0.67,1.54-1.69,2.86-3.07,3.96c-2.64,2.05-6.16,3.08-10.57,3.08h-6.49v18.88h-6.08V11.95h12.93
		c2.13,0,4.06,0.26,5.82,0.77C103.98,13.23,105.48,14,106.74,15.03"/>
	<polygon class="st0" points="78.76,49.7 78.76,55.27 53.31,55.27 53.31,11.95 78.35,11.95 78.35,17.51 59.4,17.51 59.4,30.71 
		77.82,30.71 77.82,36.27 59.4,36.27 59.4,49.7 	"/>
	<path class="st1" d="M6.62,19.85c-3.38-1.95-6.14-0.36-6.14,3.55v15.16c0,3.91,2.76,5.51,6.14,3.56l13.1-7.58
		c3.38-1.96,3.38-5.16,0-7.11L6.62,19.85z"/>
	<path class="st2" d="M6.62,19.85c-3.38-1.95-6.14-0.36-6.14,3.55v15.16c0,3.91,2.76,5.51,6.14,3.56l13.1-7.58
		c3.38-1.96,3.38-5.16,0-7.11L6.62,19.85z"/>
	<path class="st3" d="M151.82,31.99l7.31-4.23c1.88-1.09,1.88-2.88,0-3.96l-7.31-4.23c-1.88-1.09-3.43-0.2-3.43,1.98V30
		C148.4,32.19,149.94,33.08,151.82,31.99"/>
	<polygon class="st0" points="9.41,91.53 9.41,63.8 15.75,63.8 15.75,65.71 11.8,65.71 11.8,89.62 15.75,89.62 15.75,91.53 	"/>
	<path class="st0" d="M28.89,83.36v3.38c-1.5,0.86-2.96,1.29-4.37,1.29c-1.93,0-3.62-0.73-5.07-2.18c-1.45-1.46-2.18-3.14-2.18-5.05
		c0-2.17,0.72-3.97,2.17-5.4c1.44-1.43,3.26-2.15,5.44-2.15c1.3,0,2.64,0.34,4.01,1.02v3.29c-1.48-0.95-2.88-1.43-4.2-1.43
		c-1.22,0-2.29,0.43-3.2,1.29c-0.91,0.86-1.37,1.87-1.37,3.02c0,1.3,0.43,2.4,1.29,3.28c0.86,0.89,1.91,1.33,3.15,1.33
		C25.82,85.06,27.27,84.49,28.89,83.36"/>
	<path class="st0" d="M43.1,80.58c0-1.19-0.45-2.22-1.35-3.1c-0.9-0.88-1.98-1.32-3.22-1.32c-1.28,0-2.37,0.45-3.29,1.33
		c-0.92,0.89-1.38,1.95-1.38,3.19c0,1.18,0.47,2.21,1.4,3.1c0.93,0.88,2.02,1.33,3.28,1.33c1.22,0,2.29-0.45,3.2-1.36
		C42.64,82.84,43.1,81.79,43.1,80.58 M30.98,80.57c0-1.91,0.75-3.61,2.26-5.1c1.51-1.49,3.24-2.23,5.19-2.23
		c2.01,0,3.76,0.73,5.27,2.2c1.5,1.47,2.25,3.18,2.25,5.13c0,1.97-0.74,3.7-2.21,5.2c-1.47,1.5-3.17,2.25-5.1,2.25
		c-2.06,0-3.86-0.74-5.38-2.22C31.74,84.32,30.98,82.58,30.98,80.57"/>
	<path class="st0" d="M48.82,87.64v-14h2.91v2.16c0.69-0.88,1.35-1.53,1.97-1.94c0.63-0.41,1.35-0.61,2.16-0.61
		c1.06,0,1.89,0.23,2.5,0.69c0.6,0.46,1.11,1.21,1.53,2.22c0.74-1.02,1.45-1.76,2.13-2.22c0.69-0.46,1.48-0.69,2.39-0.69
		c1.11,0,2.07,0.42,2.87,1.25c0.8,0.83,1.21,1.82,1.21,2.96v10.18h-2.95v-9.42c0-1.55-0.76-2.32-2.29-2.32
		c-0.87,0-1.61,0.4-2.22,1.19c-0.61,0.79-0.91,1.77-0.91,2.94v7.62h-2.95v-9.03c0-1.83-0.75-2.75-2.25-2.75
		c-0.89,0-1.65,0.37-2.27,1.12c-0.62,0.75-0.93,1.67-0.93,2.77v7.89H48.82z"/>
	<path class="st0" d="M84.48,80.57c0-1.23-0.46-2.31-1.39-3.23c-0.92-0.92-2.01-1.38-3.26-1.38c-1.27,0-2.37,0.46-3.3,1.38
		c-0.93,0.92-1.39,2-1.39,3.24c0,1.28,0.46,2.39,1.38,3.33c0.92,0.94,2,1.41,3.25,1.41c1.3,0,2.41-0.46,3.33-1.39
		C84.02,82.99,84.48,81.88,84.48,80.57 M75.54,73.63v2.82c1.41-2.14,3.21-3.21,5.41-3.21c1.8,0,3.36,0.72,4.66,2.16
		c1.3,1.44,1.95,3.17,1.95,5.17c0,2.03-0.66,3.77-1.98,5.25c-1.32,1.47-2.87,2.21-4.67,2.21c-1.04,0-2.03-0.27-2.98-0.82
		c-0.95-0.54-1.74-1.33-2.36-2.36v9.35h-2.95V73.63H75.54z"/>
	<path class="st0" d="M90.84,73.63h2.95v7.89c0,2.44,1.07,3.65,3.2,3.65c0.95,0,1.7-0.33,2.25-0.98c0.55-0.65,0.83-1.54,0.83-2.67
		v-7.89h2.91V82c0,1.75-0.57,3.2-1.71,4.33c-1.14,1.13-2.6,1.7-4.37,1.7c-1.81,0-3.27-0.57-4.38-1.7c-1.12-1.13-1.68-2.61-1.68-4.43
		V73.63z"/>
	<polygon class="st0" points="107.49,69.56 110.43,69.56 110.43,73.63 113.35,73.63 113.35,76.33 110.43,76.33 110.43,87.64 
		107.49,87.64 107.49,76.33 105.17,76.33 105.17,73.6 107.49,73.6 	"/>
	<path class="st0" d="M118.27,78.84h8.53c-0.95-1.92-2.35-2.88-4.2-2.88C120.59,75.96,119.14,76.92,118.27,78.84 M129.89,81.2
		h-11.92c0.26,1.44,0.85,2.49,1.77,3.15c0.92,0.66,1.92,0.99,3.01,0.99c1.67,0,3.07-0.7,4.2-2.09l2.15,1.63
		c-1.62,2.09-3.78,3.14-6.49,3.14c-2.08,0-3.82-0.71-5.21-2.14c-1.4-1.43-2.1-3.2-2.1-5.31c0-1.98,0.71-3.7,2.12-5.15
		c1.42-1.45,3.15-2.18,5.19-2.18c2.01,0,3.73,0.74,5.17,2.21C129.21,76.93,129.91,78.85,129.89,81.2"/>
	<path class="st0" d="M136.56,73.63v2.89c0.65-1.16,1.3-1.99,1.92-2.5c0.63-0.52,1.44-0.77,2.45-0.77c0.28,0,0.69,0.07,1.22,0.2
		l-0.9,2.95c-0.57-0.11-0.94-0.17-1.12-0.17c-0.99,0-1.83,0.35-2.5,1.04c-0.67,0.69-1.01,1.56-1.01,2.6v7.76h-2.95v-14H136.56z"/>
	<path class="st0" d="M153.25,75.3l-1.96,1.73c-0.51-0.36-0.95-0.64-1.32-0.82c-0.37-0.19-0.81-0.28-1.32-0.28
		c-1.2,0-1.8,0.44-1.8,1.32c0,0.63,0.76,1.25,2.28,1.85c1.52,0.6,2.61,1.25,3.28,1.96c0.67,0.71,1,1.57,1,2.58
		c0,1.17-0.48,2.2-1.44,3.08c-0.96,0.87-2.09,1.31-3.39,1.31c-1.97,0-3.59-0.92-4.86-2.75l2.32-1.12c0.81,0.79,1.66,1.19,2.54,1.19
		c0.61,0,1.14-0.17,1.6-0.5c0.46-0.33,0.69-0.72,0.69-1.16c0-0.78-0.8-1.48-2.4-2.11c-1.6-0.62-2.71-1.26-3.33-1.89
		c-0.61-0.64-0.92-1.43-0.92-2.37c0-1.17,0.44-2.14,1.31-2.91c0.87-0.77,1.97-1.16,3.29-1.16C150.14,73.24,151.62,73.93,153.25,75.3
		"/>
	<polygon class="st0" points="161.44,63.8 161.44,91.53 155.1,91.53 155.1,89.62 159.05,89.62 159.05,65.71 155.1,65.71 155.1,63.8 
			"/>
	<path class="st4" d="M134.76,0.83L121.69,8.4c-3.37,1.95-3.37,5.14,0,7.09l13.08,7.57c3.37,1.95,6.12,0.35,6.12-3.55V4.38
		C140.89,0.48,138.13-1.12,134.76,0.83"/>
</g>
</svg>
