<?xml version="1.0" encoding="utf-8"?>
<!-- Generator: Adobe Illustrator 25.4.1, SVG Export Plug-In . SVG Version: 6.00 Build 0)  -->
<svg version="1.1" id="Слой_1" xmlns="http://www.w3.org/2000/svg" xmlns:xlink="http://www.w3.org/1999/xlink" x="0px" y="0px"
	 viewBox="0 0 332.09 74.55" style="enable-background:new 0 0 332.09 74.55;" xml:space="preserve">
<style type="text/css">
	.st0{fill-rule:evenodd;clip-rule:evenodd;}
	.st1{fill-rule:evenodd;clip-rule:evenodd;fill:#0069B4;}
	.st2{fill:#0069B4;}
</style>
<g>
	<path class="st0" d="M266.2,32.63c-0.44,0-1.25,0.1-1.92,0.1c-3.36,0.28-4.65,0.86-4.65,2.54c0,1.72,1.67,2.82,4.41,2.82
		c0.77,0,1.73-0.18,2.17-0.18c3.97-0.3,6.61-2.88,6.61-5.94c0,0,0-0.48-0.19-0.63C270.75,32.29,268.55,32.63,266.2,32.63
		L266.2,32.63 M141.91,37.9c-0.48,0.04-1.44,0.18-2.21,0.18c-2.68,0-4.41-1.1-4.41-2.82c0-1.68,1.29-2.25,4.7-2.54
		c0.62,0,1.43-0.19,1.92-0.19c2.4,0,4.5-0.25,6.56-1.2c0,0.14,0,0.63,0,0.63C148.47,35.03,145.94,37.52,141.91,37.9L141.91,37.9
		 M266.2,16.34c-7.48,0-12.46,0.86-15.38,3.2l0.95-2.67H238.6l-3.5,11.78c-0.48,1.82-0.91,3.31-1.35,4.94
		c-0.47-1.83-1.1-3.36-1.43-4.31l-4.79-12.4h-9.01l-4.84,12.6c-0.76,1.87-1.44,3.26-1.87,4.79c-0.43-2.3-0.71-4.36-1.1-5.61
		l-3.26-11.78h-12.31V8.58h-12.12v8.52h-4.46h-1.87v-0.33c0-1.54,0.91-1.97,2.49-1.97h2.35V8.19c-3.36,0-5.17,0-6.9,0
		c-7.13,0-9.86,1.82-9.86,7.48c0,0.63,0,1.11,0,1.43h-7.29v2.31c-0.05-0.15-0.19-0.24-0.38-0.48c-3.64-2.58-10.97-2.68-15.23-2.68
		c-9.15,0-14.62,1.39-16.91,5.17c-1.2-3.54-3.78-5.12-8.2-5.12c-3.35,0-5.89,0.81-7.76,2.63v-2.05H97.88H84.56l-8.62,8.43V8.58
		H63.81v35.45h12.12v-5.95l5.12-4.69l6.61,10.64h13.42h8.19V29.9c0-3.11,0.77-4.99,2.87-4.99c2.35,0,2.98,2.25,2.98,4.13h10.64
		c0-1.39-0.1-3.07-0.19-4.36h10.73c0.19-1.97,2.1-2.16,5.6-2.16c1.58,0,6.27,0.2,6.27,2.54c0,1.67-2.1,2.01-6.27,2.01
		c-1.63,0-3.84,0.19-6.33,0.34c-5.89,0.19-10.01,0.62-12.6,3.73c-1.01,1.25-1.44,2.88-1.44,4.98c0,5.85,4.36,7.91,13.42,7.91
		c2.64,0,5.04-0.19,6.95-0.43c2.48-0.29,4.7-1.39,6.56-3.35c0,1.53,0.43,2.54,0.96,3.79h12.9l-0.05-1.2
		c-0.24-0.1-0.48-0.44-0.48-0.44c-0.63-0.62-1.01-1.43-1.01-2.48V29.47c0-1.82-0.14-3.5-0.52-4.79h4.51v19.35h12.17V24.68h6.08
		v11.06c0,3.64,1,7.09,3.5,7.72c1.49,0.24,4.46,0.57,7.38,0.57c1.87,0,3.93,0,5.98,0v-7.52h-1.86c-2.87,0-2.87-1.68-2.87-5.8v-6.03
		h1.68l6.61,19.35h13.56l4.84-11.3c0.43-0.97,0.62-2.26,1.1-3.45c0.2,1.2,0.52,2.69,0.96,3.74l4.65,11.02h13.8l6.57-18.93l11.83,0.2
		c0.09-1.91,2.02-2.78,5.41-2.78c0.19,0,0.53,0,0.82,0c3.35,0,5.27,1.29,5.27,2.54c0,1.67-2.01,2.06-6.03,2.06
		c-1.54,0-3.84,0.14-6.28,0.29c-5.94,0.23-10.11,0.62-12.56,3.73c-1.05,1.25-1.48,2.88-1.48,4.98c0,5.85,4.36,7.91,13.37,7.91
		c2.63,0,5.08-0.29,6.95-0.43c2.29-0.24,4.64-1.39,6.61-3.35c0,1.53,0.38,2.54,0.86,3.79h12.55v-0.57
		c-1.06-0.67-1.06-1.91-1.06-3.55V29.47c0-1.63-0.15-3.02-0.43-4.36l8.43,15.14c-0.96,3.21-2.35,3.79-5.66,3.79h-2.83v7.38h8.48
		c3.4,0,5.94-0.43,8.05-2.54c1.44-1.29,3.3-4.26,5.51-8.34l11.64-23.66h-13.04l-4.36,10.25c-0.43,1.24-0.95,2.49-1.19,3.74
		c-0.38-1.4-0.91-2.84-1.63-4.33l-4.41-9.67h-13.47l1.39,2.49c-0.14-0.1-0.29-0.25-0.43-0.44c-2.4-1.72-7.34-2.63-14.52-2.63
		C266.58,16.29,266.34,16.34,266.2,16.34L266.2,16.34 M90.17,26.21l7.71-6.56v18.01L90.17,26.21L90.17,26.21z"/>
	<path class="st1" d="M22.09,55.34C9.48,52.61,0,41.2,0,27.41C0,14.28,9.48,3.16,22.09,0.63C23.9,0.24,25.87,0,27.79,0
		c5.04,0,9.15,0.63,12.79,2.59l-12.5,19.93h9.73l9.35-15.19c4.5,4.46,8.91,12.74,8.91,20.08c0,6.62-2.21,12.69-5.94,17.5
		c-5.16,6.68-13.23,10.95-22.33,10.95C25.87,55.87,23.9,55.63,22.09,55.34L22.09,55.34 M22.09,51.22c10.06,0,18.49-7.43,18.49-17.77
		c0-3.78-1.38-8.43-2.77-10.93L23.86,43.79h-1.77H9.1l12.99-19.98l5.7-8.76c-1.82-0.39-3.69-0.49-5.7-0.49v-0.04
		c-10.07,0-18.49,8-18.49,18.49C3.59,43.79,11.88,51.22,22.09,51.22L22.09,51.22L22.09,51.22z"/>
	<g>
		<path d="M327.12,11.65c0.84,0,1.65,0.21,2.45,0.64c0.8,0.43,1.42,1.04,1.86,1.84c0.44,0.8,0.67,1.63,0.67,2.5
			c0,0.86-0.22,1.68-0.66,2.48c-0.44,0.79-1.05,1.41-1.84,1.84c-0.79,0.44-1.62,0.66-2.48,0.66c-0.86,0-1.69-0.22-2.48-0.66
			c-0.79-0.44-1.41-1.05-1.85-1.84c-0.44-0.79-0.66-1.62-0.66-2.48c0-0.87,0.22-1.7,0.67-2.5c0.45-0.8,1.07-1.41,1.86-1.84
			C325.46,11.86,326.28,11.65,327.12,11.65z M327.12,12.48c-0.7,0-1.38,0.18-2.04,0.54c-0.66,0.36-1.18,0.87-1.55,1.54
			c-0.37,0.67-0.56,1.36-0.56,2.08c0,0.72,0.18,1.4,0.55,2.06c0.37,0.66,0.88,1.17,1.54,1.54c0.66,0.37,1.35,0.55,2.06,0.55
			c0.72,0,1.4-0.18,2.06-0.55c0.66-0.37,1.17-0.88,1.54-1.54c0.36-0.66,0.55-1.34,0.55-2.06c0-0.72-0.19-1.41-0.56-2.08
			c-0.37-0.67-0.89-1.18-1.55-1.54C328.49,12.66,327.81,12.48,327.12,12.48z M324.93,19.38v-5.36h1.85c0.63,0,1.09,0.05,1.37,0.15
			c0.28,0.1,0.51,0.27,0.68,0.52c0.17,0.25,0.25,0.51,0.25,0.79c0,0.39-0.14,0.73-0.42,1.03c-0.28,0.29-0.65,0.45-1.12,0.49
			c0.19,0.08,0.34,0.17,0.45,0.28c0.22,0.21,0.48,0.56,0.79,1.06l0.65,1.05h-1.06l-0.48-0.84c-0.38-0.66-0.67-1.07-0.89-1.24
			c-0.16-0.12-0.39-0.19-0.69-0.19h-0.51v2.27H324.93z M325.81,16.37h1.05c0.5,0,0.85-0.07,1.03-0.22c0.18-0.15,0.28-0.35,0.28-0.59
			c0-0.16-0.04-0.3-0.13-0.43c-0.09-0.13-0.21-0.22-0.37-0.28c-0.16-0.06-0.45-0.09-0.87-0.09h-0.99V16.37z"/>
	</g>
	<g>
		<path class="st2" d="M66.84,64.08c1.13,0,1.97,0.2,2.53,0.59c0.56,0.39,0.95,0.82,1.16,1.28c0.12,0.26,0.2,0.51,0.24,0.75
			c0.04,0.24,0.06,0.45,0.06,0.63c0,0.03,0,0.06,0,0.08c0,0.03,0,0.05,0,0.08c-0.04,0.77-0.35,1.47-0.94,2.11
			c-0.59,0.64-1.47,0.96-2.66,0.96h-1.35v3.9h-2.1V64.08H66.84z M66.84,68.92c0.58,0,1.02-0.16,1.32-0.49
			c0.3-0.33,0.45-0.72,0.45-1.16c0-0.39-0.13-0.75-0.39-1.07c-0.26-0.32-0.72-0.48-1.37-0.48h-0.96v3.21H66.84z"/>
		<path class="st2" d="M82.87,65.32c0.97,0.9,1.46,2.22,1.46,3.95c0,1.73-0.49,3.04-1.46,3.94c-0.97,0.9-2.18,1.35-3.62,1.35
			c-1.44,0-2.65-0.45-3.62-1.35c-0.97-0.9-1.46-2.21-1.46-3.94c0-1.73,0.49-3.05,1.46-3.95c0.97-0.9,2.18-1.36,3.62-1.36
			C80.68,63.96,81.89,64.41,82.87,65.32z M78.75,65.48c-0.18,0.03-0.36,0.07-0.53,0.14c-0.46,0.18-0.89,0.54-1.27,1.07
			c-0.38,0.54-0.57,1.39-0.57,2.57c0,1.17,0.19,2.03,0.57,2.57c0.38,0.54,0.8,0.9,1.27,1.07c0.18,0.07,0.36,0.12,0.53,0.14
			c0.18,0.02,0.34,0.04,0.49,0.04c0.15,0,0.31-0.01,0.49-0.04c0.18-0.03,0.36-0.07,0.53-0.14c0.46-0.18,0.89-0.53,1.27-1.07
			c0.38-0.54,0.57-1.39,0.57-2.57c0-1.18-0.19-2.03-0.57-2.57c-0.38-0.54-0.8-0.9-1.27-1.07c-0.18-0.07-0.36-0.12-0.53-0.14
			c-0.18-0.02-0.34-0.04-0.49-0.04C79.09,65.44,78.93,65.46,78.75,65.48z"/>
		<path class="st2" d="M95.8,74.13c-0.32,0.11-0.64,0.19-0.98,0.26c-0.34,0.06-0.68,0.11-1.02,0.14c-0.12,0.01-0.23,0.02-0.35,0.02
			c-0.11,0-0.22,0.01-0.33,0.01c-1.46,0-2.73-0.44-3.79-1.31c-1.07-0.87-1.6-2.18-1.6-3.92c0-1.64,0.52-2.94,1.55-3.91
			c1.03-0.97,2.44-1.45,4.23-1.45c0.34,0,0.64,0.02,0.92,0.05c0.28,0.03,0.56,0.08,0.82,0.14c0.09,0.03,0.18,0.06,0.27,0.08
			c0.09,0.02,0.19,0.05,0.27,0.08l-0.09,1.78c-0.34-0.14-0.67-0.24-1.01-0.3c-0.34-0.06-0.69-0.09-1.05-0.09
			c-1.06,0-1.94,0.31-2.65,0.92c-0.71,0.62-1.06,1.5-1.06,2.66c0,1.18,0.31,2.04,0.93,2.57c0.62,0.53,1.31,0.84,2.06,0.93
			c0.1,0.01,0.19,0.02,0.29,0.02c0.09,0.01,0.18,0.01,0.27,0.01c0.4,0,0.77-0.04,1.1-0.11c0.33-0.07,0.61-0.16,0.84-0.26
			c0.04-0.01,0.08-0.02,0.12-0.04c0.04-0.01,0.07-0.03,0.1-0.05L95.8,74.13z"/>
		<path class="st2" d="M107.21,74.13c-0.32,0.11-0.64,0.19-0.98,0.26c-0.34,0.06-0.68,0.11-1.02,0.14
			c-0.12,0.01-0.23,0.02-0.35,0.02c-0.11,0-0.22,0.01-0.33,0.01c-1.46,0-2.73-0.44-3.79-1.31c-1.07-0.87-1.6-2.18-1.6-3.92
			c0-1.64,0.52-2.94,1.55-3.91c1.03-0.97,2.44-1.45,4.23-1.45c0.34,0,0.64,0.02,0.92,0.05c0.28,0.03,0.56,0.08,0.82,0.14
			c0.09,0.03,0.18,0.06,0.27,0.08c0.09,0.02,0.19,0.05,0.27,0.08l-0.09,1.78c-0.34-0.14-0.67-0.24-1.01-0.3
			c-0.34-0.06-0.69-0.09-1.05-0.09c-1.06,0-1.94,0.31-2.65,0.92c-0.71,0.62-1.06,1.5-1.06,2.66c0,1.18,0.31,2.04,0.93,2.57
			c0.62,0.53,1.31,0.84,2.06,0.93c0.1,0.01,0.19,0.02,0.29,0.02c0.09,0.01,0.18,0.01,0.27,0.01c0.4,0,0.77-0.04,1.1-0.11
			c0.33-0.07,0.61-0.16,0.84-0.26c0.04-0.01,0.08-0.02,0.12-0.04c0.04-0.01,0.07-0.03,0.1-0.05L107.21,74.13z"/>
		<path class="st2" d="M113.02,64.08v5.33l-0.04,2.52h0.04l0.74-1.51l3.63-6.34h2.52v10.37h-2.1V69.1l0.04-2.5h-0.04l-0.71,1.57
			l-3.66,6.28h-2.52V64.08H113.02z"/>
		<path class="st2" d="M126.16,64.08v5.33l-0.04,2.52h0.04l0.74-1.51l3.63-6.34h2.52v10.37h-2.1V69.1l0.04-2.5h-0.04l-0.71,1.57
			l-3.66,6.28h-2.52V64.08H126.16z M131.18,61.62c-0.17,0.42-0.38,0.74-0.64,0.98c-0.26,0.24-0.52,0.41-0.8,0.52
			c-0.24,0.1-0.47,0.16-0.7,0.19c-0.23,0.03-0.43,0.04-0.6,0.04c-0.17,0-0.37-0.01-0.59-0.04c-0.23-0.03-0.46-0.09-0.7-0.18
			c-0.28-0.12-0.55-0.29-0.81-0.52c-0.26-0.23-0.48-0.56-0.64-0.99l1.08-0.58c0.02,0.05,0.05,0.11,0.09,0.18
			c0.04,0.07,0.09,0.15,0.15,0.23c0.12,0.14,0.29,0.26,0.51,0.38c0.22,0.11,0.53,0.17,0.91,0.17c0.39,0,0.69-0.06,0.91-0.17
			c0.22-0.11,0.39-0.24,0.51-0.38c0.06-0.08,0.11-0.15,0.15-0.23c0.04-0.07,0.07-0.14,0.09-0.18L131.18,61.62z"/>
		<path class="st2" d="M144.9,74.13c-0.32,0.11-0.64,0.19-0.98,0.26c-0.34,0.06-0.68,0.11-1.02,0.14c-0.12,0.01-0.23,0.02-0.35,0.02
			c-0.11,0-0.22,0.01-0.33,0.01c-1.46,0-2.73-0.44-3.79-1.31c-1.07-0.87-1.6-2.18-1.6-3.92c0-1.64,0.52-2.94,1.55-3.91
			c1.03-0.97,2.44-1.45,4.23-1.45c0.34,0,0.64,0.02,0.92,0.05c0.28,0.03,0.56,0.08,0.82,0.14c0.09,0.03,0.18,0.06,0.27,0.08
			c0.09,0.02,0.19,0.05,0.27,0.08l-0.09,1.78c-0.34-0.14-0.67-0.24-1.01-0.3c-0.34-0.06-0.69-0.09-1.05-0.09
			c-1.06,0-1.94,0.31-2.65,0.92c-0.71,0.62-1.06,1.5-1.06,2.66c0,1.18,0.31,2.04,0.93,2.57c0.62,0.53,1.31,0.84,2.06,0.93
			c0.1,0.01,0.19,0.02,0.29,0.02c0.09,0.01,0.18,0.01,0.27,0.01c0.4,0,0.77-0.04,1.1-0.11c0.33-0.07,0.61-0.16,0.84-0.26
			c0.04-0.01,0.08-0.02,0.12-0.04c0.04-0.01,0.07-0.03,0.1-0.05L144.9,74.13z"/>
		<path class="st2" d="M150.71,64.08v4.43h0.04l3.75-4.43h2.5l-4.33,4.7l4.59,5.67h-2.67l-3.85-5.15h-0.04v5.15h-2.1V64.08H150.71z"
			/>
		<path class="st2" d="M162.59,64.08v5.33l-0.04,2.52h0.04l0.74-1.51l3.63-6.34h2.52v10.37h-2.1V69.1l0.04-2.5h-0.04l-0.71,1.57
			l-3.66,6.28h-2.52V64.08H162.59z"/>
		<path class="st2" d="M179.82,64.08v1.84h-4.09v2.34h3.72v1.7h-3.72v2.65h4.09v1.84h-6.19V64.08H179.82z"/>
		<path class="st2" d="M198.22,64.08v1.84h-2.99v8.53h-2.1v-8.53h-2.99v-1.84H198.22z"/>
		<path class="st2" d="M207.75,64.08v1.84h-4.09v2.34h3.72v1.7h-3.72v2.65h4.09v1.84h-6.19V64.08H207.75z"/>
		<path class="st2" d="M213.66,64.08l1.66,2.89l0.47,0.87h0.04l0.47-0.87l1.7-2.89h2.3l-3.16,4.95l3.47,5.42h-2.49l-1.99-3.29
			l-0.44-0.8h-0.04l-0.45,0.8l-2.06,3.29h-2.3l3.47-5.42l-3.16-4.95H213.66z"/>
		<path class="st2" d="M226.13,64.08v4.18h4.21v-4.18h2.1v10.37h-2.1v-4.49h-4.21v4.49h-2.1V64.08H226.13z"/>
		<path class="st2" d="M244.93,65.32c0.97,0.9,1.46,2.22,1.46,3.95c0,1.73-0.49,3.04-1.46,3.94c-0.97,0.9-2.18,1.35-3.62,1.35
			c-1.44,0-2.65-0.45-3.62-1.35c-0.97-0.9-1.46-2.21-1.46-3.94c0-1.73,0.49-3.05,1.46-3.95c0.97-0.9,2.18-1.36,3.62-1.36
			C242.75,63.96,243.95,64.41,244.93,65.32z M240.82,65.48c-0.18,0.03-0.36,0.07-0.53,0.14c-0.46,0.18-0.89,0.54-1.27,1.07
			c-0.38,0.54-0.57,1.39-0.57,2.57c0,1.17,0.19,2.03,0.57,2.57c0.38,0.54,0.8,0.9,1.27,1.07c0.18,0.07,0.36,0.12,0.53,0.14
			c0.18,0.02,0.34,0.04,0.49,0.04c0.15,0,0.31-0.01,0.49-0.04c0.18-0.03,0.36-0.07,0.53-0.14c0.46-0.18,0.89-0.53,1.27-1.07
			c0.38-0.54,0.57-1.39,0.57-2.57c0-1.18-0.19-2.03-0.57-2.57c-0.38-0.54-0.8-0.9-1.27-1.07c-0.18-0.07-0.36-0.12-0.53-0.14
			c-0.18-0.02-0.34-0.04-0.49-0.04C241.16,65.44,240.99,65.46,240.82,65.48z"/>
		<path class="st2" d="M258.15,64.08v10.37h-2.1v-8.53h-2.74v2.07c0,1.99-0.14,3.58-0.42,4.77c-0.28,1.2-1.15,1.79-2.6,1.79
			c-0.08,0-0.16,0-0.24-0.01c-0.08-0.01-0.17-0.01-0.26-0.02c-0.09-0.02-0.18-0.03-0.26-0.04c-0.08-0.01-0.16-0.02-0.24-0.03
			l0.09-1.64c0.02,0,0.04,0,0.07,0.01c0.03,0.01,0.05,0.01,0.07,0.02c0.02,0,0.04,0,0.07,0.01c0.02,0,0.05,0.01,0.07,0.01
			c0.05,0.01,0.1,0.02,0.16,0.02c0.05,0,0.1,0.01,0.14,0.01c0.63,0,1.03-0.38,1.18-1.13c0.16-0.76,0.24-1.59,0.24-2.5
			c0-0.16,0-0.32,0-0.47s0-0.32,0-0.47c-0.01-0.15-0.01-0.29-0.01-0.43c0-0.14,0-0.28,0-0.42v-3.38H258.15z"/>
		<path class="st2" d="M270.63,65.32c0.97,0.9,1.46,2.22,1.46,3.95c0,1.73-0.49,3.04-1.46,3.94c-0.97,0.9-2.18,1.35-3.62,1.35
			c-1.44,0-2.65-0.45-3.62-1.35c-0.97-0.9-1.46-2.21-1.46-3.94c0-1.73,0.49-3.05,1.46-3.95c0.97-0.9,2.18-1.36,3.62-1.36
			C268.45,63.96,269.66,64.41,270.63,65.32z M266.52,65.48c-0.18,0.03-0.36,0.07-0.53,0.14c-0.46,0.18-0.89,0.54-1.27,1.07
			c-0.38,0.54-0.57,1.39-0.57,2.57c0,1.17,0.19,2.03,0.57,2.57c0.38,0.54,0.8,0.9,1.27,1.07c0.18,0.07,0.36,0.12,0.53,0.14
			c0.18,0.02,0.34,0.04,0.49,0.04c0.15,0,0.31-0.01,0.49-0.04c0.18-0.03,0.36-0.07,0.53-0.14c0.46-0.18,0.89-0.53,1.27-1.07
			c0.38-0.54,0.57-1.39,0.57-2.57c0-1.18-0.19-2.03-0.57-2.57c-0.38-0.54-0.8-0.9-1.27-1.07c-0.18-0.07-0.36-0.12-0.53-0.14
			c-0.18-0.02-0.34-0.04-0.49-0.04C266.86,65.44,266.7,65.46,266.52,65.48z"/>
		<path class="st2" d="M282.24,64.08v1.84h-4.27v8.53h-2.1V64.08H282.24z"/>
		<path class="st2" d="M287.6,64.08v5.33l-0.04,2.52h0.04l0.74-1.51l3.63-6.34h2.52v10.37h-2.1V69.1l0.04-2.5h-0.04l-0.71,1.57
			l-3.66,6.28h-2.52V64.08H287.6z"/>
		<path class="st2" d="M300.74,64.08v5.33l-0.04,2.52h0.04l0.74-1.51l3.63-6.34h2.52v10.37h-2.1V69.1l0.04-2.5h-0.04l-0.71,1.57
			l-3.66,6.28h-2.52V64.08H300.74z"/>
	</g>
</g>
</svg>
