<?xml version="1.0" encoding="utf-8"?>
<!-- Generator: Adobe Illustrator 25.4.1, SVG Export Plug-In . SVG Version: 6.00 Build 0)  -->
<svg version="1.1" id="Слой_1" xmlns="http://www.w3.org/2000/svg" xmlns:xlink="http://www.w3.org/1999/xlink" x="0px" y="0px"
	 viewBox="0 0 160.98 34.19" style="enable-background:new 0 0 160.98 34.19;" xml:space="preserve">
<style type="text/css">
	.st0{fill:#1D1D1B;}
	.st1{fill-rule:evenodd;clip-rule:evenodd;fill:url(#SVGID_1_);}
	.st2{fill-rule:evenodd;clip-rule:evenodd;fill:url(#SVGID_00000047035799627633333980000003449446893138543011_);}
</style>
<g>
	<path class="st0" d="M50.91,30.19V4.24h10.81c1.13,0,2.16,0.23,3.09,0.69c0.96,0.46,1.78,1.1,2.46,1.9
		c0.69,0.78,1.23,1.66,1.62,2.63c0.39,0.95,0.59,1.92,0.59,2.92c0,1.41-0.32,2.75-0.96,4.02c-0.61,1.24-1.48,2.25-2.61,3.03
		c-1.13,0.78-2.45,1.17-3.97,1.17h-8.46v9.58H50.91z M53.49,18.35h8.35c1.03,0,1.92-0.28,2.68-0.84c0.76-0.56,1.35-1.29,1.77-2.19
		c0.42-0.9,0.63-1.88,0.63-2.92c0-1.07-0.25-2.06-0.74-2.96c-0.49-0.9-1.14-1.61-1.95-2.12c-0.78-0.54-1.65-0.8-2.61-0.8h-8.13
		V18.35z"/>
	<path class="st0" d="M88.55,30.56c-1.83,0-3.49-0.37-4.97-1.1c-1.49-0.73-2.77-1.72-3.84-2.96c-1.07-1.27-1.9-2.68-2.49-4.24
		c-0.58-1.58-0.88-3.2-0.88-4.86c0-1.73,0.3-3.38,0.91-4.93c0.61-1.58,1.46-2.99,2.56-4.2c1.12-1.24,2.43-2.22,3.91-2.92
		c1.49-0.73,3.1-1.1,4.83-1.1c1.83,0,3.49,0.38,4.97,1.13s2.75,1.77,3.8,3.03c1.07,1.27,1.9,2.68,2.49,4.24
		c0.58,1.56,0.88,3.16,0.88,4.79c0,1.73-0.31,3.39-0.91,4.97c-0.61,1.56-1.46,2.96-2.56,4.2c-1.1,1.22-2.39,2.18-3.88,2.89
		C91.89,30.21,90.28,30.56,88.55,30.56z M78.93,17.4c0,1.41,0.23,2.78,0.69,4.09c0.46,1.29,1.12,2.45,1.97,3.47
		c0.85,1,1.86,1.8,3.03,2.41c1.19,0.58,2.5,0.88,3.91,0.88c1.49,0,2.82-0.3,3.99-0.91c1.19-0.63,2.21-1.46,3.03-2.49
		c0.85-1.05,1.5-2.22,1.94-3.51c0.44-1.29,0.66-2.61,0.66-3.95c0-1.41-0.23-2.77-0.69-4.06c-0.46-1.29-1.13-2.45-2.01-3.47
		c-0.85-1.02-1.86-1.83-3.03-2.41c-1.17-0.58-2.46-0.88-3.88-0.88c-1.46,0-2.79,0.3-3.99,0.91c-1.17,0.61-2.18,1.44-3.03,2.49
		c-0.83,1.02-1.47,2.18-1.94,3.47C79.15,14.75,78.93,16.06,78.93,17.4z"/>
	<path class="st0" d="M107.61,17.18c0-1.58,0.27-3.13,0.81-4.64c0.56-1.54,1.37-2.92,2.42-4.17c1.05-1.27,2.35-2.27,3.89-3
		c1.54-0.76,3.29-1.13,5.25-1.13c2.32,0,4.31,0.54,5.95,1.61c1.66,1.05,2.89,2.4,3.67,4.06l-2.02,1.24
		c-0.56-1.15-1.27-2.05-2.13-2.7c-0.86-0.68-1.78-1.17-2.75-1.46c-0.95-0.29-1.91-0.44-2.86-0.44c-1.57,0-2.95,0.32-4.15,0.95
		c-1.2,0.61-2.22,1.44-3.05,2.49c-0.81,1.02-1.42,2.18-1.83,3.47c-0.42,1.27-0.62,2.56-0.62,3.87c0,1.44,0.25,2.81,0.74,4.13
		c0.49,1.32,1.17,2.49,2.06,3.51c0.88,1,1.91,1.8,3.08,2.41c1.2,0.58,2.5,0.88,3.89,0.88c0.98,0,1.98-0.17,3.01-0.51
		s1.98-0.87,2.86-1.57c0.9-0.71,1.63-1.62,2.17-2.74l2.13,1.1c-0.54,1.29-1.37,2.39-2.5,3.29c-1.13,0.9-2.39,1.58-3.78,2.05
		c-1.37,0.46-2.72,0.69-4.04,0.69c-1.79,0-3.43-0.38-4.92-1.13c-1.49-0.78-2.79-1.8-3.89-3.07c-1.08-1.29-1.91-2.73-2.5-4.31
		C107.9,20.44,107.61,18.81,107.61,17.18z"/>
	<path class="st0" d="M147.94,4.24h2.17l10.87,25.95h-2.73l-3.39-8.11h-11.75l-3.35,8.11H137L147.94,4.24z M154.28,20.07
		l-5.27-12.83l-5.34,12.83H154.28z"/>
	
		<linearGradient id="SVGID_1_" gradientUnits="userSpaceOnUse" x1="5.4262" y1="107.2304" x2="17.7243" y2="117.0689" gradientTransform="matrix(1 0 0 -1 0 133.6596)">
		<stop  offset="0" style="stop-color:#1D1D1B"/>
		<stop  offset="1" style="stop-color:#FFFFFF;stop-opacity:0"/>
	</linearGradient>
	<path class="st1" d="M6.85,3.41C2.69,6.53,0,11.5,0,17.09c0,9.44,7.65,17.09,17.09,17.09c5.6,0,10.57-2.69,13.69-6.85l-1.76-1.76
		c-2.65,3.72-7.01,6.15-11.93,6.15c-8.08,0-14.64-6.55-14.64-14.64c0-4.92,2.43-9.27,6.15-11.93L6.85,3.41z"/>
	
		<linearGradient id="SVGID_00000091730047518774259800000010443146128426859957_" gradientUnits="userSpaceOnUse" x1="32.5093" y1="132.4474" x2="23.2855" y2="122.8547" gradientTransform="matrix(1 0 0 -1 0 133.6596)">
		<stop  offset="0" style="stop-color:#2D5FFF"/>
		<stop  offset="1" style="stop-color:#2D5FFF;stop-opacity:0"/>
	</linearGradient>
	<path style="fill-rule:evenodd;clip-rule:evenodd;fill:url(#SVGID_00000091730047518774259800000010443146128426859957_);" d="
		M17.1,2.46h14.64v14.64c0,2.13-0.46,4.16-1.27,5.98l1.84,1.84c1.21-2.34,1.89-5,1.89-7.82V1.97c0-1.09-0.88-1.97-1.97-1.97H17.1
		c-2.82,0-5.48,0.68-7.82,1.89l1.84,1.84C12.94,2.92,14.96,2.46,17.1,2.46z"/>
</g>
</svg>
