<?xml version="1.0" encoding="utf-8"?>
<!-- Generator: Adobe Illustrator 25.4.1, SVG Export Plug-In . SVG Version: 6.00 Build 0)  -->
<svg version="1.1" id="Layer_1" xmlns="http://www.w3.org/2000/svg" xmlns:xlink="http://www.w3.org/1999/xlink" x="0px" y="0px"
	 viewBox="0 0 115.5 33.21" style="enable-background:new 0 0 115.5 33.21;" xml:space="preserve">
<style type="text/css">
	.st0{fill:#2D2A26;}
	.st1{fill:#00AACE;}
	.st2{fill:#F8AE00;}
</style>
<g>
	<g>
		<g>
			<path class="st0" d="M45.62,7.96h-6.92V6.67h15.25v1.29h-6.92v18.37h-1.4V7.96z"/>
			<path class="st0" d="M60.97,25.17c-1.51-0.87-2.69-2.06-3.55-3.58c-0.86-1.52-1.29-3.21-1.29-5.08c0-1.87,0.43-3.57,1.29-5.08
				c0.86-1.52,2.05-2.71,3.55-3.58c1.51-0.87,3.19-1.31,5.06-1.31c1.87,0,3.56,0.43,5.06,1.29c1.51,0.86,2.69,2.05,3.55,3.57
				c0.86,1.52,1.29,3.22,1.29,5.11c0,1.89-0.43,3.59-1.29,5.11c-0.86,1.52-2.05,2.71-3.55,3.57c-1.51,0.86-3.19,1.29-5.06,1.29
				C64.16,26.47,62.47,26.04,60.97,25.17z M70.36,24.03c1.29-0.75,2.3-1.78,3.05-3.1c0.74-1.32,1.12-2.79,1.12-4.42
				s-0.37-3.1-1.12-4.42c-0.74-1.32-1.76-2.35-3.05-3.1c-1.29-0.75-2.73-1.12-4.33-1.12c-1.6,0-3.04,0.37-4.34,1.12
				c-1.3,0.75-2.32,1.78-3.06,3.1c-0.74,1.32-1.12,2.79-1.12,4.42s0.37,3.1,1.12,4.42c0.74,1.32,1.76,2.35,3.06,3.1
				c1.3,0.75,2.74,1.12,4.34,1.12C67.63,25.15,69.07,24.78,70.36,24.03z"/>
			<path class="st0" d="M95.68,6.67v19.66h-1.13L81.76,9.26v17.08H80.4V6.67h1.15l12.76,17.08V6.67H95.68z"/>
			<path class="st0" d="M105.76,16.72l-4.21,4.52v5.17h-1.37V6.75h1.37v12.64l11.73-12.64h1.66l-8.27,8.93l8.83,10.73h-1.66
				L105.76,16.72z"/>
		</g>
	</g>
	<g>
		<g>
			<path class="st1" d="M16.47,19.87l-5.33,5.39L11.08,3.61l-0.92,0.32C4.08,6.01,0,11.73,0,18.16c0,8.3,6.75,15.05,15.05,15.05
				c1.82,0,3.6-0.32,5.3-0.96L21,32L16.47,19.87z"/>
			<path class="st2" d="M14.58,0c-1.37,0-2.73,0.19-4.05,0.55L9.37,0.88l15.79,15.6l-7.74-0.02l6,10.79l0.65-0.53
				c3.53-2.87,5.55-7.13,5.55-11.67C29.63,6.75,22.88,0,14.58,0z"/>
		</g>
	</g>
</g>
</svg>
